<?xml version="1.0" encoding="utf-8"?>
<!-- Generator: Adobe Illustrator 21.1.0, SVG Export Plug-In . SVG Version: 6.00 Build 0)  -->
<svg version="1.1" id="Layer_1" xmlns="http://www.w3.org/2000/svg" xmlns:xlink="http://www.w3.org/1999/xlink" x="0px" y="0px"
	 viewBox="0 0 24 24" style="enable-background:new 0 0 24 24;" xml:space="preserve">
<style type="text/css">
	.st0{fill:#FFFFFF;}
</style>
<g id="Icons">
	<path id="menu" class="st0" d="M6,15h12c0.6,0,1,0.4,1,1v1c0,0.6-0.4,1-1,1H6c-0.6,0-1-0.4-1-1v-1C5,15.4,5.4,15,6,15z M5,11v1
		c0,0.6,0.4,1,1,1h12c0.6,0,1-0.4,1-1v-1c0-0.6-0.4-1-1-1H6C5.4,10,5,10.4,5,11z M5,6v1c0,0.6,0.4,1,1,1h12c0.6,0,1-0.4,1-1V6
		c0-0.6-0.4-1-1-1H6C5.4,5,5,5.4,5,6z"/>
</g>
<g id="Guides" class="st1">
</g>
</svg>
